<svg width="20" height="20" viewBox="0 0 20 20" fill="none" xmlns="http://www.w3.org/2000/svg">
<path fill-rule="evenodd" clip-rule="evenodd" d="M10.5 12C11.8807 12 13 10.8807 13 9.5C13 8.11929 11.8807 7 10.5 7C9.11929 7 8 8.11929 8 9.5C8 10.8807 9.11929 12 10.5 12Z" stroke="white" stroke-width="2" stroke-linecap="round" stroke-linejoin="round"/>
<path fill-rule="evenodd" clip-rule="evenodd" d="M16.0545 12.4545C15.8317 12.9594 15.9386 13.5491 16.3245 13.9436L16.3736 13.9927C16.6809 14.2997 16.8536 14.7161 16.8536 15.1505C16.8536 15.5848 16.6809 16.0013 16.3736 16.3082C16.0667 16.6155 15.6502 16.7881 15.2159 16.7881C14.7816 16.7881 14.3651 16.6155 14.0582 16.3082L14.0091 16.2591C13.6146 15.8732 13.0249 15.7663 12.52 15.9891C12.0254 16.2011 11.704 16.6865 11.7018 17.2245V17.3636C11.7018 18.2674 10.9692 19 10.0655 19C9.16172 19 8.42909 18.2674 8.42909 17.3636V17.29C8.41613 16.7358 8.06571 16.2459 7.54545 16.0545C7.04056 15.8317 6.45088 15.9386 6.05636 16.3245L6.00727 16.3736C5.70034 16.6809 5.28385 16.8536 4.84955 16.8536C4.41524 16.8536 3.99875 16.6809 3.69182 16.3736C3.38455 16.0667 3.21189 15.6502 3.21189 15.2159C3.21189 14.7816 3.38455 14.3651 3.69182 14.0582L3.74091 14.0091C4.12682 13.6146 4.23374 13.0249 4.01091 12.52C3.79894 12.0254 3.31353 11.704 2.77545 11.7018H2.63636C1.73262 11.7018 1 10.9692 1 10.0655C1 9.16172 1.73262 8.42909 2.63636 8.42909H2.71C3.26418 8.41613 3.75411 8.06571 3.94545 7.54545C4.16828 7.04056 4.06136 6.45088 3.67545 6.05636L3.62636 6.00727C3.31909 5.70034 3.14644 5.28385 3.14644 4.84955C3.14644 4.41524 3.31909 3.99875 3.62636 3.69182C3.93329 3.38455 4.34978 3.21189 4.78409 3.21189C5.2184 3.21189 5.63489 3.38455 5.94182 3.69182L5.99091 3.74091C6.38543 4.12682 6.97511 4.23374 7.48 4.01091H7.54545C8.04002 3.79894 8.36149 3.31353 8.36364 2.77545V2.63636C8.36364 1.73262 9.09626 1 10 1C10.9037 1 11.6364 1.73262 11.6364 2.63636V2.71C11.6385 3.24807 11.96 3.73349 12.4545 3.94545C12.9594 4.16828 13.5491 4.06136 13.9436 3.67545L13.9927 3.62636C14.2997 3.31909 14.7161 3.14644 15.1505 3.14644C15.5848 3.14644 16.0013 3.31909 16.3082 3.62636C16.6155 3.93329 16.7881 4.34978 16.7881 4.78409C16.7881 5.2184 16.6155 5.63489 16.3082 5.94182L16.2591 5.99091C15.8732 6.38543 15.7663 6.97511 15.9891 7.48V7.54545C16.2011 8.04002 16.6865 8.36149 17.2245 8.36364H17.3636C18.2674 8.36364 19 9.09626 19 10C19 10.9037 18.2674 11.6364 17.3636 11.6364H17.29C16.7519 11.6385 16.2665 11.96 16.0545 12.4545Z" stroke="white" stroke-width="2" stroke-linecap="round" stroke-linejoin="round"/>
</svg>
